<?xml version="1.0" standalone="no"?>
<!DOCTYPE svg PUBLIC "-//W3C//DTD SVG 20010904//EN"
 "http://www.w3.org/TR/2001/REC-SVG-20010904/DTD/svg10.dtd">
<svg version="1.0" xmlns="http://www.w3.org/2000/svg"
 width="200.000000pt" height="200.000000pt" viewBox="0 0 200.000000 200.000000"
 preserveAspectRatio="xMidYMid meet">

<g transform="translate(0.000000,200.000000) scale(0.100000,-0.100000)"
fill="#000000" stroke="none">
<path d="M520 1000 c0 -189 2 -220 15 -220 13 0 15 31 15 220 0 189 -2 220
-15 220 -13 0 -15 -31 -15 -220z"/>
<path d="M658 1199 c-12 -7 -18 -22 -18 -49 0 -43 25 -69 70 -72 14 0 5 -4
-20 -7 -40 -5 -45 -9 -48 -33 -3 -28 -3 -28 55 -28 78 0 95 13 91 70 -3 42 -5
45 -43 56 -38 12 -32 17 18 17 12 0 17 8 17 28 0 28 -1 29 -52 29 -29 0 -61
-5 -70 -11z"/>
<path d="M834 1163 c-10 -27 -18 -70 -19 -98 0 -49 1 -50 30 -50 23 0 31 5 33
23 2 14 10 22 22 22 12 0 20 -8 22 -22 2 -18 10 -23 33 -23 28 0 30 3 33 41 2
24 -6 64 -18 97 l-21 57 -48 0 -48 0 -19 -47z m79 -33 c4 -15 0 -20 -13 -20
-13 0 -17 5 -13 20 3 11 9 20 13 20 4 0 10 -9 13 -20z"/>
<path d="M1015 1200 c-7 -11 -5 -144 3 -172 3 -12 14 -18 33 -18 27 0 29 3 29
35 0 23 5 35 13 34 35 -4 47 2 47 26 0 21 -5 25 -30 25 -35 0 -41 19 -7 21 12
1 29 2 37 3 8 0 16 13 18 29 l3 27 -70 0 c-38 0 -73 -4 -76 -10z"/>
<path d="M1182 1113 l3 -98 73 -3 73 -3 -3 28 c-3 24 -8 29 -43 33 l-40 5 33
8 c27 5 33 11 30 29 -2 17 -11 24 -30 26 -42 5 -34 19 10 18 33 -1 37 2 40 27
l3 27 -76 0 -76 0 3 -97z"/>
<path d="M208 1151 c-25 -22 -33 -39 -37 -77 -6 -47 -8 -49 -38 -52 -30 -3
-33 -6 -33 -38 l0 -34 120 0 c73 0 120 -4 120 -10 0 -6 -47 -10 -120 -10
l-120 0 0 -25 0 -25 120 0 c73 0 120 -4 120 -10 0 -6 -47 -10 -120 -10 l-120
0 0 -35 0 -35 170 0 170 0 0 35 c0 28 -4 35 -20 35 -11 0 -20 5 -20 10 0 6 9
10 20 10 15 0 20 7 20 25 0 18 -5 25 -20 25 -11 0 -20 5 -20 10 0 6 9 10 20
10 16 0 20 7 20 35 0 33 -2 35 -35 35 -35 0 -35 0 -35 46 0 39 -5 51 -34 80
-44 44 -83 45 -128 5z m107 -26 c18 -18 25 -35 25 -65 l0 -40 -70 0 -70 0 0
44 c0 36 5 48 26 65 35 27 59 26 89 -4z"/>
<path d="M634 967 c-3 -8 -4 -52 -2 -98 l3 -84 33 -3 c28 -3 32 0 32 22 0 21
6 26 35 32 19 3 40 13 47 21 18 22 13 95 -8 110 -24 18 -133 17 -140 0z m96
-63 c0 -8 -7 -14 -15 -14 -15 0 -21 21 -9 33 10 9 24 -2 24 -19z"/>
<path d="M839 953 c-5 -16 -14 -40 -20 -54 -6 -14 -9 -46 -7 -70 3 -39 6 -44
29 -47 21 -2 28 2 33 22 9 36 46 36 46 1 0 -21 5 -25 30 -25 30 0 30 0 30 58
0 35 -8 74 -20 100 -18 40 -21 42 -65 42 -41 0 -47 -3 -56 -27z m71 -59 c0 -8
-7 -14 -15 -14 -17 0 -18 2 -9 24 7 18 24 12 24 -10z"/>
<path d="M1010 950 c0 -20 5 -30 15 -30 11 0 15 -11 15 -40 0 -29 -4 -40 -15
-40 -10 0 -15 -10 -15 -30 l0 -31 68 3 c61 3 67 5 70 26 3 17 -2 25 -17 29
-30 8 -30 78 0 86 15 4 20 12 17 29 -3 21 -9 23 -70 26 l-68 3 0 -31z"/>
<path d="M1175 968 c-3 -7 -4 -51 -2 -98 l2 -85 33 -3 c30 -3 32 -1 32 27 0
24 4 31 19 31 14 0 21 -8 23 -27 2 -23 8 -29 36 -31 32 -3 32 -3 32 41 0 25
-6 49 -13 56 -8 6 -12 23 -9 42 3 24 0 36 -14 46 -23 17 -133 18 -139 1z m95
-58 c0 -5 -7 -10 -15 -10 -8 0 -15 5 -15 10 0 6 7 10 15 10 8 0 15 -4 15 -10z"/>
<path d="M1377 973 c-14 -14 -6 -45 13 -50 16 -4 20 -14 20 -43 0 -29 -4 -39
-20 -43 -14 -3 -20 -14 -20 -31 0 -26 1 -26 70 -26 69 0 70 0 70 26 0 17 -6
28 -20 31 -16 4 -20 14 -20 43 0 29 4 39 20 43 14 3 20 14 20 31 0 25 -2 26
-63 26 -35 0 -67 -3 -70 -7z"/>
<path d="M1540 880 l0 -100 30 0 c29 0 30 1 30 47 0 45 0 46 19 29 11 -10 21
-30 23 -45 2 -22 8 -26 33 -26 l30 0 0 95 0 95 -30 0 c-22 0 -30 -5 -35 -23
l-5 -24 -24 26 c-14 14 -35 26 -48 26 -23 0 -23 -2 -23 -100z"/>
<path d="M1763 965 c-20 -14 -23 -25 -23 -84 0 -88 13 -101 98 -101 l62 0 0
55 c0 54 0 55 -30 55 -25 0 -30 -4 -30 -25 0 -19 -5 -25 -21 -25 -17 0 -20 5
-17 38 3 35 5 37 43 42 35 4 40 8 40 30 0 23 -4 25 -50 28 -33 2 -57 -3 -72
-13z"/>
</g>
</svg>
